<svg width="13" height="14" viewBox="0 0 13 14" fill="none" xmlns="http://www.w3.org/2000/svg">
<path d="M12.0144 10.5425H10.4714V10.4169C10.4714 10.0365 10.1677 9.70282 9.82161 9.70282H6.369L6.07934 6.51179C6.05482 6.21023 5.86537 5.86368 5.62402 5.66042L5.19798 0.653828C5.18203 0.46437 5.09278 0.292049 4.9464 0.168759C4.8005 0.0454681 4.61461 -0.0135589 4.42587 0.00262591L1.44405 0.256585C1.0518 0.290145 0.76 0.636453 0.793084 1.02917L0.925181 2.53865C0.723584 2.43821 0.518893 2.46248 0.392747 2.60005C0.329436 2.66884 0.258032 2.79594 0.276359 3.01158L1.15272 13.3075C1.18509 13.6893 1.52307 13.9999 1.90603 13.9999H5.21916H6.49848C6.50014 14.0001 6.50205 13.9999 6.50324 13.9999H9.75734C10.151 13.9999 10.4714 13.6795 10.4714 13.2859V13.1602H12.0144C12.4081 13.1602 12.7285 12.8398 12.7285 12.4462V11.2566C12.7285 10.8627 12.4081 10.5425 12.0144 10.5425ZM1.43167 2.86782L1.34527 1.87959L4.79978 1.58565L5.11729 5.31482L1.43167 2.86782ZM1.48427 0.731182L4.46633 0.477461C4.52797 0.472224 4.59033 0.491741 4.6396 0.532917C4.68839 0.574094 4.71838 0.631455 4.72386 0.69429L4.75932 1.11129L1.30386 1.40523L1.2672 0.988473C1.25626 0.857566 1.3536 0.74213 1.48427 0.731182ZM5.21916 13.5239H1.90603C1.76893 13.5239 1.6385 13.4042 1.62684 13.2673L0.75167 2.98802L5.27557 5.99149C5.43266 6.09574 5.58951 6.36208 5.60498 6.55249L6.23785 13.5241L5.21916 13.5239ZM9.99512 13.2859C9.99512 13.417 9.88849 13.5239 9.7571 13.5239H6.71578L6.41232 10.1788H9.82137C9.88087 10.1788 9.99512 10.2793 9.99512 10.4169V13.2859ZM12.2524 12.4462C12.2524 12.5773 12.1458 12.6842 12.0144 12.6842H10.4714V11.0186H12.0144C12.1458 11.0186 12.2524 11.1254 12.2524 11.2566V12.4462ZM5.00923 12.3745C5.00923 12.4402 4.95592 12.4935 4.89023 12.4935H2.74788C2.68219 12.4935 2.62887 12.4402 2.62887 12.3745C2.62887 12.3088 2.68219 12.2555 2.74788 12.2555H4.89023C4.95592 12.2555 5.00923 12.3088 5.00923 12.3745ZM5.00923 11.8514C5.00923 11.917 4.95592 11.9704 4.89023 11.9704H2.74788C2.68219 11.9704 2.62887 11.917 2.62887 11.8514C2.62887 11.7857 2.68219 11.7324 2.74788 11.7324H4.89023C4.95592 11.7324 5.00923 11.7854 5.00923 11.8514ZM5.00923 11.3282C5.00923 11.3939 4.95592 11.4472 4.89023 11.4472H2.74788C2.68219 11.4472 2.62887 11.3939 2.62887 11.3282C2.62887 11.2625 2.68219 11.2092 2.74788 11.2092H4.89023C4.95592 11.2092 5.00923 11.2625 5.00923 11.3282Z" fill="#398CEF"/>
</svg>
