<svg width="15" height="15" viewBox="0 0 15 15" fill="none" xmlns="http://www.w3.org/2000/svg">
<path d="M11.4222 3.57852L12.902 5.05834M11.4222 3.57852L9.94234 2.0987M11.4222 3.57852L12.902 2.0987M9.35041 1.50677C9.58157 1.73793 9.94234 2.0987 9.94234 2.0987M13.4939 5.65027C13.2628 5.41911 12.902 5.05834 12.902 5.05834M12.902 5.05834L9.94234 8.01799M9.94234 2.0987L6.98269 5.05834M5.50287 11.2736V11.2736C5.82978 11.6005 6.35982 11.6005 6.68673 11.2736L9.94234 8.01799M5.50287 11.2736L5.20691 11.5696C4.71654 12.0599 3.92149 12.0599 3.43112 11.5696V11.5696V11.5696C2.94075 11.0792 2.94075 10.2841 3.43112 9.79378L3.72708 9.49781M5.50287 11.2736L3.72708 9.49781M3.72708 9.49781V9.49781C3.40017 9.1709 3.40017 8.64087 3.72708 8.31395L6.98269 5.05834M6.98269 5.05834L9.94234 8.01799M12.902 2.0987L12.3263 1.52302C12.3158 1.51248 12.3089 1.49878 12.3069 1.48401C12.3051 1.47101 12.3209 1.46319 12.3301 1.47246L13.5282 2.67055C13.5375 2.67982 13.5297 2.69557 13.5167 2.69377C13.5019 2.69173 13.4882 2.68492 13.4777 2.67438L12.902 2.0987Z" stroke="#398CEF" stroke-width="0.75" stroke-linecap="round"/>
<path d="M1.00082 13.9999L3.43164 11.5691" stroke="#398CEF" stroke-width="0.75" stroke-linecap="round"/>
<path d="M6.98255 10.3851L6.39062 9.79321" stroke="#398CEF" stroke-width="0.75" stroke-linecap="round"/>
<path d="M7.87123 9.49794L7.2793 8.90601" stroke="#398CEF" stroke-width="0.75" stroke-linecap="round"/>
<path d="M8.75794 8.60926L8.16602 8.01733" stroke="#398CEF" stroke-width="0.75" stroke-linecap="round"/>
</svg>
