<svg width="12" height="16" viewBox="0 0 12 16" fill="none" xmlns="http://www.w3.org/2000/svg">
<path d="M4.438 8.17138H6.74426H7.04109L9.1987 6.01377L7.46909 4.28416L4.00999 0.824951L0.550781 4.28416L4.00999 7.74326L4.438 8.17138Z" stroke="#398CEF" stroke-width="0.46875" stroke-linecap="round" stroke-linejoin="round"/>
<path d="M4.22752 1.91553L1.64062 4.50242" stroke="#398CEF" stroke-width="0.46875" stroke-linecap="round" stroke-linejoin="round"/>
<path d="M8.10851 5.7959L6.875 7.10059" stroke="#398CEF" stroke-width="0.46875" stroke-linecap="round" stroke-linejoin="round"/>
<path d="M6.16234 10.175C6.32104 10.175 6.44968 10.0464 6.44968 9.88768C6.44968 9.72899 6.32104 9.60034 6.16234 9.60034C6.00365 9.60034 5.875 9.72899 5.875 9.88768C5.875 10.0464 6.00365 10.175 6.16234 10.175Z" fill="#398CEF"/>
<path d="M6.16234 12.175C6.32104 12.175 6.44968 12.0464 6.44968 11.8877C6.44968 11.729 6.32104 11.6003 6.16234 11.6003C6.00365 11.6003 5.875 11.729 5.875 11.8877C5.875 12.0464 6.00365 12.175 6.16234 12.175Z" fill="#398CEF"/>
<path d="M6.16234 14.175C6.32104 14.175 6.44968 14.0464 6.44968 13.8877C6.44968 13.729 6.32104 13.6003 6.16234 13.6003C6.00365 13.6003 5.875 13.729 5.875 13.8877C5.875 14.0464 6.00365 14.175 6.16234 14.175Z" fill="#398CEF"/>
<path d="M5.16234 11.175C5.32104 11.175 5.44968 11.0464 5.44968 10.8877C5.44968 10.729 5.32104 10.6003 5.16234 10.6003C5.00365 10.6003 4.875 10.729 4.875 10.8877C4.875 11.0464 5.00365 11.175 5.16234 11.175Z" fill="#398CEF"/>
<path d="M5.16234 13.175C5.32104 13.175 5.44968 13.0464 5.44968 12.8877C5.44968 12.729 5.32104 12.6003 5.16234 12.6003C5.00365 12.6003 4.875 12.729 4.875 12.8877C4.875 13.0464 5.00365 13.175 5.16234 13.175Z" fill="#398CEF"/>
<path d="M5.16234 15.175C5.32104 15.175 5.44968 15.0464 5.44968 14.8877C5.44968 14.729 5.32104 14.6003 5.16234 14.6003C5.00365 14.6003 4.875 14.729 4.875 14.8877C4.875 15.0464 5.00365 15.175 5.16234 15.175Z" fill="#398CEF"/>
<path d="M4.16234 12.175C4.32104 12.175 4.44968 12.0464 4.44968 11.8877C4.44968 11.729 4.32104 11.6003 4.16234 11.6003C4.00365 11.6003 3.875 11.729 3.875 11.8877C3.875 12.0464 4.00365 12.175 4.16234 12.175Z" fill="#398CEF"/>
<path d="M4.16234 14.175C4.32104 14.175 4.44968 14.0464 4.44968 13.8877C4.44968 13.729 4.32104 13.6003 4.16234 13.6003C4.00365 13.6003 3.875 13.729 3.875 13.8877C3.875 14.0464 4.00365 14.175 4.16234 14.175Z" fill="#398CEF"/>
<path d="M3.16234 13.175C3.32104 13.175 3.44968 13.0464 3.44968 12.8877C3.44968 12.729 3.32104 12.6003 3.16234 12.6003C3.00365 12.6003 2.875 12.729 2.875 12.8877C2.875 13.0464 3.00365 13.175 3.16234 13.175Z" fill="#398CEF"/>
<path d="M3.16234 15.175C3.32104 15.175 3.44968 15.0464 3.44968 14.8877C3.44968 14.729 3.32104 14.6003 3.16234 14.6003C3.00365 14.6003 2.875 14.729 2.875 14.8877C2.875 15.0464 3.00365 15.175 3.16234 15.175Z" fill="#398CEF"/>
<path d="M1.16234 15.175C1.32104 15.175 1.44968 15.0464 1.44968 14.8877C1.44968 14.729 1.32104 14.6003 1.16234 14.6003C1.00365 14.6003 0.875 14.729 0.875 14.8877C0.875 15.0464 1.00365 15.175 1.16234 15.175Z" fill="#398CEF"/>
<path d="M2.16234 14.175C2.32104 14.175 2.44968 14.0464 2.44968 13.8877C2.44968 13.729 2.32104 13.6003 2.16234 13.6003C2.00365 13.6003 1.875 13.729 1.875 13.8877C1.875 14.0464 2.00365 14.175 2.16234 14.175Z" fill="#398CEF"/>
<path d="M9.16234 13.175C9.32104 13.175 9.44968 13.0464 9.44968 12.8877C9.44968 12.729 9.32104 12.6003 9.16234 12.6003C9.00365 12.6003 8.875 12.729 8.875 12.8877C8.875 13.0464 9.00365 13.175 9.16234 13.175Z" fill="#398CEF"/>
<path d="M9.16234 15.175C9.32104 15.175 9.44968 15.0464 9.44968 14.8877C9.44968 14.729 9.32104 14.6003 9.16234 14.6003C9.00365 14.6003 8.875 14.729 8.875 14.8877C8.875 15.0464 9.00365 15.175 9.16234 15.175Z" fill="#398CEF"/>
<path d="M11.1623 15.175C11.321 15.175 11.4497 15.0464 11.4497 14.8877C11.4497 14.729 11.321 14.6003 11.1623 14.6003C11.0036 14.6003 10.875 14.729 10.875 14.8877C10.875 15.0464 11.0036 15.175 11.1623 15.175Z" fill="#398CEF"/>
<path d="M10.1623 14.175C10.321 14.175 10.4497 14.0464 10.4497 13.8877C10.4497 13.729 10.321 13.6003 10.1623 13.6003C10.0036 13.6003 9.875 13.729 9.875 13.8877C9.875 14.0464 10.0036 14.175 10.1623 14.175Z" fill="#398CEF"/>
<path d="M7.16234 11.175C7.32104 11.175 7.44968 11.0464 7.44968 10.8877C7.44968 10.729 7.32104 10.6003 7.16234 10.6003C7.00365 10.6003 6.875 10.729 6.875 10.8877C6.875 11.0464 7.00365 11.175 7.16234 11.175Z" fill="#398CEF"/>
<path d="M7.16234 13.175C7.32104 13.175 7.44968 13.0464 7.44968 12.8877C7.44968 12.729 7.32104 12.6003 7.16234 12.6003C7.00365 12.6003 6.875 12.729 6.875 12.8877C6.875 13.0464 7.00365 13.175 7.16234 13.175Z" fill="#398CEF"/>
<path d="M7.16234 15.175C7.32104 15.175 7.44968 15.0464 7.44968 14.8877C7.44968 14.729 7.32104 14.6003 7.16234 14.6003C7.00365 14.6003 6.875 14.729 6.875 14.8877C6.875 15.0464 7.00365 15.175 7.16234 15.175Z" fill="#398CEF"/>
<path d="M8.16234 12.175C8.32104 12.175 8.44968 12.0464 8.44968 11.8877C8.44968 11.729 8.32104 11.6003 8.16234 11.6003C8.00365 11.6003 7.875 11.729 7.875 11.8877C7.875 12.0464 8.00365 12.175 8.16234 12.175Z" fill="#398CEF"/>
<path d="M8.16234 14.175C8.32104 14.175 8.44968 14.0464 8.44968 13.8877C8.44968 13.729 8.32104 13.6003 8.16234 13.6003C8.00365 13.6003 7.875 13.729 7.875 13.8877C7.875 14.0464 8.00365 14.175 8.16234 14.175Z" fill="#398CEF"/>
</svg>
