<svg width="10" height="16" viewBox="0 0 10 16" fill="none" xmlns="http://www.w3.org/2000/svg">
<path d="M6.55577 4.11111C7.17461 4.11111 7.7681 4.35694 8.20569 4.79453C8.64327 5.23211 8.88911 5.82561 8.88911 6.44444V14.2222C8.88911 14.4285 8.80716 14.6263 8.6613 14.7722C8.51544 14.9181 8.31761 15 8.11133 15H1.88911C1.68283 15 1.485 14.9181 1.33913 14.7722C1.19327 14.6263 1.11133 14.4285 1.11133 14.2222V6.44444C1.11133 5.82561 1.35716 5.23211 1.79475 4.79453C2.23233 4.35694 2.82582 4.11111 3.44466 4.11111M6.55577 4.11111H3.44466M6.55577 4.11111V1.77778C6.55577 1.5715 6.47383 1.37367 6.32797 1.22781C6.18211 1.08194 5.98427 1 5.77799 1H4.22244C4.01616 1 3.81833 1.08194 3.67247 1.22781C3.52661 1.37367 3.44466 1.5715 3.44466 1.77778V4.11111M3.44466 9.55556H6.55577M5.00022 8V11.1111" stroke="white" stroke-width="0.75" stroke-linecap="round" stroke-linejoin="round"/>
</svg>
