<svg width="500" height="500" viewBox="0 0 500 500" fill="none" xmlns="http://www.w3.org/2000/svg">
<path d="M307.5 63.8542C275.652 64.0226 245 76.0063 221.483 97.4834C197.966 118.961 183.258 148.402 180.208 180.104C155.965 182.39 132.872 191.528 113.628 206.45C94.3842 221.371 79.7838 241.461 71.5324 264.372C63.2811 287.282 61.7195 312.068 67.0302 335.833C72.3409 359.598 84.3046 381.362 101.524 398.581C118.742 415.8 140.506 427.763 164.271 433.074C188.036 438.385 212.822 436.823 235.732 428.572C258.643 420.32 278.733 405.72 293.655 386.476C308.576 367.232 317.714 344.14 320 319.896C352.846 316.754 383.22 301.079 404.811 276.128C426.402 251.176 437.551 218.866 435.942 185.91C434.333 152.953 420.09 121.882 396.171 99.1527C372.252 76.4232 340.496 63.7816 307.5 63.8542ZM192.292 415.312C171.941 415.273 152.02 409.464 134.837 398.56C117.654 387.656 103.915 372.104 95.2135 353.708C86.5117 335.312 83.2037 314.826 85.6734 294.627C88.1431 274.427 96.2892 255.341 109.167 239.583L260.625 390.833C241.38 406.68 217.221 415.334 192.292 415.312ZM275.417 376.146L123.958 224.687C144.605 207.707 170.832 199.019 197.533 200.316C224.234 201.614 249.495 212.804 268.398 231.706C287.301 250.609 298.49 275.87 299.788 302.571C301.085 329.272 292.397 355.5 275.417 376.146ZM320.208 298.854C318.194 267.931 304.987 238.799 283.055 216.906C261.123 195.012 231.969 181.856 201.042 179.896C203.343 159.83 211.254 140.819 223.867 125.045C236.48 109.27 253.284 97.3698 272.352 90.7097C291.42 84.0496 311.978 82.8992 331.67 87.3904C351.362 91.8817 369.389 101.833 383.683 116.102C397.977 130.371 407.959 148.38 412.485 168.064C417.011 187.748 415.896 208.309 409.27 227.388C402.643 246.467 390.772 263.292 375.02 275.933C359.267 288.573 340.27 296.518 320.208 298.854Z" fill="black"/>
</svg>
